<?xml version="1.0" encoding="utf-8"?>
<!-- Generator: Adobe Illustrator 18.1.1, SVG Export Plug-In . SVG Version: 6.00 Build 0)  -->
<svg version="1.1" id="Layer_1" xmlns="http://www.w3.org/2000/svg" xmlns:xlink="http://www.w3.org/1999/xlink" x="0px" y="0px"
	 viewBox="-304 382.5 97.1 28.5" enable-background="new -304 382.5 97.1 28.5" xml:space="preserve">
<g>
	<path fill="#FFFFFF" d="M-271.3,410.9l2.6-6.7h1l2.7,6.7h-1l-0.8-2h-2.8l-0.7,2C-270.3,410.9-271.3,410.9-271.3,410.9z
		 M-269.3,408.1h2.3l-0.7-1.9c-0.2-0.6-0.4-1-0.5-1.4c-0.1,0.4-0.2,0.9-0.4,1.3L-269.3,408.1z"/>
</g>
<g>
	<path fill="#FFFFFF" d="M-264.3,410.9v-6.7h2.5c0.5,0,0.9,0.1,1.2,0.2s0.6,0.3,0.7,0.6s0.3,0.6,0.3,0.9c0,0.3-0.1,0.6-0.2,0.8
		c-0.2,0.3-0.4,0.5-0.7,0.6c0.4,0.1,0.7,0.3,0.9,0.6c0.2,0.3,0.3,0.6,0.3,1c0,0.3-0.1,0.6-0.2,0.9c-0.1,0.3-0.3,0.5-0.5,0.6
		c-0.2,0.1-0.4,0.3-0.7,0.3c-0.3,0.1-0.7,0.1-1.1,0.1L-264.3,410.9L-264.3,410.9z M-263.5,407h1.4c0.4,0,0.7,0,0.8-0.1
		c0.2-0.1,0.4-0.2,0.5-0.3c0.1-0.2,0.2-0.3,0.2-0.6c0-0.2-0.1-0.4-0.2-0.6c-0.1-0.2-0.3-0.3-0.5-0.3c-0.2-0.1-0.5-0.1-1-0.1h-1.3
		V407z M-263.5,410.1h1.7c0.3,0,0.5,0,0.6,0c0.2,0,0.4-0.1,0.5-0.2c0.1-0.1,0.2-0.2,0.3-0.4c0.1-0.2,0.1-0.4,0.1-0.6
		c0-0.2-0.1-0.5-0.2-0.6c-0.1-0.2-0.3-0.3-0.5-0.4c-0.2-0.1-0.6-0.1-1-0.1h-1.5V410.1z"/>
</g>
<g>
	<path fill="#FFFFFF" d="M-256.7,410.9V405h-2.2v-0.8h5.3v0.8h-2.2v5.9C-255.9,410.9-256.7,410.9-256.7,410.9z"/>
</g>
<g>
	<path fill="#FFFFFF" d="M-254.5,410.9l2.6-6.7h1l2.7,6.7h-1l-0.8-2h-2.8l-0.7,2H-254.5z M-252.6,408.1h2.3l-0.7-1.9
		c-0.2-0.6-0.4-1-0.5-1.4c-0.1,0.4-0.2,0.9-0.4,1.3L-252.6,408.1z"/>
</g>
<g>
	<path fill="#FFFFFF" d="M-245.5,410.9v-6.7h0.9l3.5,5.2v-5.2h0.8v6.7h-0.9l-3.5-5.3v5.3L-245.5,410.9L-245.5,410.9z"/>
	<path fill="#FFFFFF" d="M-239.2,408.5c0-0.9,0.2-1.6,0.7-2c0.4-0.4,0.9-0.5,1.5-0.5c0.7,0,1.2,0.2,1.6,0.7c0.4,0.4,0.6,1,0.6,1.8
		c0,0.6-0.1,1.1-0.3,1.5s-0.5,0.6-0.8,0.8s-0.7,0.3-1.2,0.3c-0.7,0-1.2-0.2-1.6-0.7C-238.9,409.9-239.2,409.3-239.2,408.5z
		 M-238.3,408.5c0,0.6,0.1,1.1,0.4,1.4c0.3,0.3,0.6,0.5,1,0.5c0.4,0,0.7-0.2,1-0.5c0.3-0.3,0.4-0.8,0.4-1.4c0-0.6-0.1-1.1-0.4-1.4
		c-0.3-0.3-0.6-0.5-1-0.5c-0.4,0-0.8,0.2-1,0.5C-238.2,407.4-238.3,407.8-238.3,408.5z"/>
</g>
<g>
	<path fill="#FFFFFF" d="M-233.4,410.9V410h0.9v0.9H-233.4z"/>
</g>
<g>
	<path fill="#FFFFFF" d="M-229.3,410.9v-2.8l-2.6-3.9h1.1l1.3,2c0.2,0.4,0.5,0.8,0.7,1.1c0.2-0.4,0.4-0.7,0.7-1.2l1.3-2h1l-2.7,3.9
		v2.8C-228.4,410.9-229.3,410.9-229.3,410.9z"/>
</g>
<g>
	<path fill="#FFFFFF" d="M-223.3,410.9h-0.8v-5.2c-0.2,0.2-0.5,0.4-0.8,0.6c-0.3,0.2-0.6,0.3-0.9,0.4v-0.8c0.5-0.2,0.9-0.5,1.2-0.8
		c0.3-0.3,0.6-0.6,0.7-0.9h0.5V410.9z"/>
</g>
<g>
	<path fill="#FFFFFF" d="M-217.4,410.1v0.8h-4.4c0-0.2,0-0.4,0.1-0.6c0.1-0.3,0.3-0.6,0.5-0.9c0.2-0.3,0.6-0.6,1.1-1
		c0.7-0.6,1.2-1.1,1.5-1.4c0.3-0.3,0.4-0.7,0.4-1c0-0.3-0.1-0.6-0.3-0.8c-0.2-0.2-0.5-0.3-0.9-0.3c-0.4,0-0.7,0.1-0.9,0.4
		s-0.4,0.6-0.4,1l-0.8-0.1c0.1-0.6,0.3-1.1,0.7-1.4c0.4-0.3,0.9-0.5,1.5-0.5c0.6,0,1.1,0.2,1.5,0.5c0.4,0.4,0.6,0.8,0.6,1.3
		c0,0.3-0.1,0.5-0.2,0.8c-0.1,0.3-0.3,0.5-0.5,0.8c-0.3,0.3-0.7,0.7-1.3,1.2c-0.5,0.4-0.8,0.7-0.9,0.8c-0.1,0.1-0.3,0.3-0.3,0.4
		L-217.4,410.1L-217.4,410.1z"/>
	<path fill="#FFFFFF" d="M-216.5,409.1l0.9-0.1c0.1,0.4,0.2,0.7,0.4,0.9c0.2,0.2,0.5,0.3,0.8,0.3c0.4,0,0.7-0.1,1-0.4
		c0.3-0.3,0.4-0.7,0.4-1.2c0-0.5-0.1-0.8-0.4-1.1c-0.3-0.3-0.6-0.4-1-0.4c-0.3,0-0.5,0.1-0.7,0.2s-0.4,0.3-0.5,0.5l-0.8-0.1l0.6-3.4
		h3.3v0.8h-2.7l-0.4,1.8c0.4-0.3,0.8-0.4,1.3-0.4c0.6,0,1.1,0.2,1.5,0.6c0.4,0.4,0.6,0.9,0.6,1.6c0,0.6-0.2,1.1-0.5,1.6
		c-0.4,0.5-1,0.8-1.8,0.8c-0.6,0-1.1-0.2-1.5-0.5C-216.3,410.1-216.5,409.7-216.5,409.1z"/>
	<path fill="#FFFFFF" d="M-207.1,405.8l-0.8,0.1c-0.1-0.3-0.2-0.6-0.3-0.7c-0.2-0.2-0.5-0.4-0.8-0.4c-0.3,0-0.5,0.1-0.7,0.2
		c-0.3,0.2-0.5,0.5-0.6,0.8c-0.1,0.4-0.2,0.9-0.2,1.5c0.2-0.3,0.4-0.5,0.7-0.7c0.3-0.1,0.6-0.2,0.9-0.2c0.5,0,1,0.2,1.4,0.6
		c0.4,0.4,0.6,0.9,0.6,1.6c0,0.4-0.1,0.8-0.3,1.2c-0.2,0.4-0.4,0.6-0.7,0.8c-0.3,0.2-0.7,0.3-1.1,0.3c-0.7,0-1.2-0.3-1.7-0.8
		c-0.4-0.5-0.6-1.3-0.6-2.5c0-1.3,0.2-2.2,0.7-2.8c0.4-0.5,1-0.8,1.7-0.8c0.5,0,1,0.1,1.3,0.4C-207.3,404.9-207.1,405.3-207.1,405.8
		z M-210.4,408.7c0,0.3,0.1,0.6,0.2,0.8c0.1,0.3,0.3,0.5,0.5,0.6c0.2,0.1,0.4,0.2,0.7,0.2c0.3,0,0.6-0.1,0.9-0.4
		c0.2-0.3,0.4-0.7,0.4-1.1c0-0.5-0.1-0.8-0.4-1.1c-0.2-0.3-0.6-0.4-0.9-0.4c-0.4,0-0.7,0.1-0.9,0.4
		C-210.3,407.9-210.4,408.3-210.4,408.7z"/>
</g>
<g>
	<path fill="#FFFFFF" d="M-263.1,382.5c-0.3,0-0.6,0-0.8,0v1.4v15.7v0.6c0.3,0,0.6,0,0.8,0c4.9,0,8.9-4,8.9-8.9
		C-254.3,386.5-258.2,382.5-263.1,382.5 M-259.9,392.2c0,0.6-0.1,1.1-0.2,1.7h-2.1v-1.7H-259.9z M-262.2,390.5v-1.7h2.1
		c0.1,0.5,0.2,1.1,0.2,1.7H-262.2z M-258.2,392.2h2.1c-0.1,0.6-0.2,1.1-0.4,1.7h-1.9C-258.3,393.3-258.2,392.7-258.2,392.2
		 M-258.2,390.5c0-0.6-0.1-1.1-0.2-1.7h1.9c0.2,0.5,0.3,1.1,0.4,1.7H-258.2z M-257.4,387.2h-1.5c-0.3-0.8-0.7-1.5-1.1-2.2
		C-259,385.5-258.1,386.3-257.4,387.2 M-260.6,387.2h-1.6v-2.9C-261.5,385.2-261,386.1-260.6,387.2 M-262.2,398.4v-2.9h1.6
		C-261,396.6-261.5,397.6-262.2,398.4L-262.2,398.4z M-260,397.7c0.5-0.7,0.8-1.4,1.1-2.3h1.5C-258,396.4-258.9,397.2-260,397.7"/>
	<path fill="#FFFFFF" d="M-234.6,399.2h-4.7v-14.7h4.6c3,0,4.3,2,4.3,3.8c0,1.4-0.6,2.3-1.8,3v0c1.7,0.4,2.7,1.6,2.7,3.3
		C-229.4,396.8-230.9,399.2-234.6,399.2 M-235,386.8h-1.5v3.8h1.4c1.2,0,2.1-0.8,2.1-2C-233,387.6-233.8,386.8-235,386.8
		 M-234.5,392.8h-2v4.1h1.7c1.8,0,2.7-0.8,2.7-2.1C-232.2,393.6-233,392.8-234.5,392.8"/>
	<polygon fill="#FFFFFF" points="-218.6,386.7 -222.5,386.7 -222.5,399.2 -225.2,399.2 -225.2,386.7 -229.5,386.7 -229.5,384.5 
		-217.7,384.5 	"/>
	<path fill="#FFFFFF" d="M-243.3,399.2l-1.5-3.7h-5.2l-1.4,3.7h-2.7l5.7-14.7h2l5.9,14.7H-243.3z M-246.8,389.9
		c-0.3-0.7-0.4-1.3-0.6-1.8h0c-0.1,0.5-0.3,1.1-0.5,1.8l-1.3,3.4h3.6L-246.8,389.9z"/>
	<path fill="#FFFFFF" d="M-209.8,399.2l-1.4-3.7h-5.2l-1.4,3.7h-2.7l5.7-14.7h2l5.9,14.7H-209.8z M-213.2,389.9
		c-0.3-0.7-0.4-1.3-0.6-1.8h0c-0.1,0.5-0.3,1.1-0.5,1.8l-1.3,3.4h3.6L-213.2,389.9z"/>
	<path fill="#FFFFFF" d="M-264.8,389.7V389l-4.2-4.2c-0.2,0.2-0.5,0.4-0.7,0.7l4.2,4.2H-264.8z"/>
	<path fill="#FFFFFF" d="M-264.8,393v0.7l-4.2,4.2c-0.2-0.2-0.5-0.4-0.7-0.7l4.2-4.2H-264.8z"/>
	<path fill="#FFFFFF" d="M-264.8,390.5h-7.2c0,0.3,0,0.5,0,0.8c0,0.3,0,0.5,0,0.8h7.2V390.5z"/>
	<path fill="#FFFFFF" d="M-270.2,386c-0.8,1.1-1.4,2.3-1.6,3.7h5.3L-270.2,386z"/>
	<path fill="#FFFFFF" d="M-264.8,388v-5.3c-1.4,0.3-2.6,0.8-3.7,1.6L-264.8,388z"/>
	<path fill="#FFFFFF" d="M-268.5,398.4c1.1,0.8,2.3,1.4,3.7,1.6v-5.3L-268.5,398.4z"/>
	<path fill="#FFFFFF" d="M-266.5,393h-5.3c0.3,1.4,0.8,2.6,1.6,3.7L-266.5,393z"/>
</g>
<g>
	<g>
		<defs>
			<path id="SVGID_1_" d="M-304,396.8c0,7.8,6.3,14.2,14.2,14.2c7.8,0,14.2-6.3,14.2-14.2c0-7.8-6.3-14.2-14.2-14.2
				C-297.7,382.6-304,389-304,396.8"/>
		</defs>
		<clipPath id="SVGID_2_">
			<use xlink:href="#SVGID_1_"  overflow="visible"/>
		</clipPath>
		<path clip-path="url(#SVGID_2_)" fill="#FFFFFF" d="M-284.3,398.8c0,0-3.3,0-4.9-3.3c-2.2-4.5,2.4-6.8,2.4-6.8l4.1,0.7
			L-284.3,398.8z"/>
	</g>
	<g>
		<defs>
			<path id="SVGID_3_" d="M-304,396.8c0,7.8,6.3,14.2,14.2,14.2c7.8,0,14.2-6.3,14.2-14.2c0-7.8-6.3-14.2-14.2-14.2
				C-297.7,382.6-304,389-304,396.8"/>
		</defs>
		<clipPath id="SVGID_4_">
			<use xlink:href="#SVGID_3_"  overflow="visible"/>
		</clipPath>
		<path clip-path="url(#SVGID_4_)" fill="#FFFFFF" d="M-288.8,400.2c-0.2,0-0.4,0-0.6,0s-0.2,0.2-0.3,0.3c0,0.2,0,0.3,0.1,0.4
			c0.1,0.1,0.3,0.2,0.5,0.2c0.2,0,0.4,0,0.6,0c0.1-0.1,0.2-0.2,0.3-0.3c0-0.2,0-0.3-0.1-0.4C-288.4,400.3-288.6,400.2-288.8,400.2
			 M-294.5,399.8l0.7,0.1l-0.2-0.6L-294.5,399.8z M-290.8,397.1c-2.7-2.8-2.7-6.2-1-9.3l-2.3-0.4l-2.5,14.4l11.5,2l0.8-4.3
			C-284.4,399.4-288.1,399.9-290.8,397.1 M-293.5,400.6l-0.1-0.3l-1-0.2l-0.2,0.3l-0.6-0.1l1.2-1.2l0.6,0.1l0.7,1.6L-293.5,400.6z
			 M-290.4,399.9l-0.8-0.1l-0.2,1.1l-0.6-0.1l0.2-1.1l-0.8-0.1l0-0.2l2.2,0.4L-290.4,399.9z M-287.6,400.9c0,0.2-0.2,0.4-0.5,0.5
			c-0.2,0.1-0.5,0.1-0.9,0c-0.4-0.1-0.7-0.2-0.9-0.3c-0.3-0.2-0.4-0.4-0.3-0.6c0-0.3,0.2-0.4,0.5-0.5c0.2-0.1,0.5-0.1,0.9,0
			c0.4,0.1,0.7,0.2,0.9,0.3C-287.6,400.4-287.5,400.6-287.6,400.9 M-285.3,402l-1.9-0.3l0.2-1.4l0.6,0.1l-0.2,1.1l1.4,0.2
			L-285.3,402z"/>
	</g>
	<g>
		<defs>
			<path id="SVGID_5_" d="M-304,396.8c0,7.8,6.3,14.2,14.2,14.2c7.8,0,14.2-6.3,14.2-14.2c0-7.8-6.3-14.2-14.2-14.2
				C-297.7,382.6-304,389-304,396.8"/>
		</defs>
		<clipPath id="SVGID_6_">
			<use xlink:href="#SVGID_5_"  overflow="visible"/>
		</clipPath>
		<path clip-path="url(#SVGID_6_)" fill="#FFFFFF" d="M-303.8,394.4c-1.4,7.7,3.8,15.1,11.5,16.4s15.1-3.8,16.4-11.5
			c0.1-0.8,0.2-1.7,0.2-2.5c0-6.8-4.9-12.8-11.7-14C-295.1,381.5-302.4,386.6-303.8,394.4 M-292.1,409.9c-7.2-1.3-12-8.2-10.8-15.4
			c1.3-7.2,8.2-12,15.4-10.8c7.2,1.3,12,8.2,10.8,15.4C-278,406.3-284.9,411.2-292.1,409.9"/>
	</g>
	<g>
		<defs>
			<path id="SVGID_7_" d="M-304,396.8c0,7.8,6.3,14.2,14.2,14.2c7.8,0,14.2-6.3,14.2-14.2c0-7.8-6.3-14.2-14.2-14.2
				C-297.7,382.6-304,389-304,396.8"/>
		</defs>
		<clipPath id="SVGID_8_">
			<use xlink:href="#SVGID_7_"  overflow="visible"/>
		</clipPath>
		<path clip-path="url(#SVGID_8_)" fill="#FFFFFF" d="M-302,399.9c0-0.1,0-0.2-0.1-0.3c0-0.1-0.1-0.2-0.1-0.3l2.9-0.8l0.3,1
			c0.2,0.6,0,1-0.5,1.1c-0.7,0.2-1.1-0.3-1.3-1.1L-302,399.9z M-300.5,399.5c0,0.1,0.1,0.2,0.1,0.3c0.2,0.3,0.4,0.3,0.7,0.2
			c0.3-0.1,0.5-0.3,0.5-0.5l-0.1-0.3L-300.5,399.5z"/>
	</g>
	<g>
		<defs>
			<path id="SVGID_9_" d="M-304,396.8c0,7.8,6.3,14.2,14.2,14.2c7.8,0,14.2-6.3,14.2-14.2c0-7.8-6.3-14.2-14.2-14.2
				C-297.7,382.6-304,389-304,396.8"/>
		</defs>
		<clipPath id="SVGID_10_">
			<use xlink:href="#SVGID_9_"  overflow="visible"/>
		</clipPath>
		<path clip-path="url(#SVGID_10_)" fill="#FFFFFF" d="M-298.6,400.8l0.5,0.8c0.1,0.2,0.3,0.4,0.3,0.7c0,0.3-0.1,0.5-0.3,0.6
			c-0.4,0.2-0.7,0.1-1-0.2c-0.2,0.4-0.4,0.9-0.7,1.3l-0.1,0.3c-0.1-0.1-0.1-0.2-0.2-0.4c-0.1-0.1-0.1-0.2-0.2-0.3l0.5-0.9
			c0.1-0.1,0.2-0.3,0.3-0.5l0,0l-1.2,0.7c0-0.1-0.1-0.2-0.1-0.3c-0.1-0.1-0.1-0.2-0.2-0.3L-298.6,400.8z M-299.4,402.1
			c0.2,0.4,0.5,0.5,0.9,0.3c0.1,0,0.1-0.1,0.2-0.1c0.3-0.2,0.1-0.5-0.1-0.7L-299.4,402.1z"/>
	</g>
	<g>
		<defs>
			<path id="SVGID_11_" d="M-304,396.8c0,7.8,6.3,14.2,14.2,14.2c7.8,0,14.2-6.3,14.2-14.2c0-7.8-6.3-14.2-14.2-14.2
				C-297.7,382.6-304,389-304,396.8"/>
		</defs>
		<clipPath id="SVGID_12_">
			<use xlink:href="#SVGID_11_"  overflow="visible"/>
		</clipPath>
		<path clip-path="url(#SVGID_12_)" fill="#FFFFFF" d="M-298.1,406.3c-0.7-0.6-0.8-1.5-0.2-2.2c0.6-0.7,1.5-0.8,2.3,0
			c0.9,0.8,0.6,1.7,0.2,2.2C-296.4,406.9-297.3,407-298.1,406.3 M-297.9,404.6c-0.4,0.4-0.6,1-0.1,1.5c0.5,0.4,1.2,0.1,1.6-0.4
			c0.4-0.4,0.6-1.1,0.1-1.5C-296.7,403.8-297.2,403.9-297.9,404.6"/>
	</g>
	<g>
		<defs>
			<path id="SVGID_13_" d="M-304,396.8c0,7.8,6.3,14.2,14.2,14.2c7.8,0,14.2-6.3,14.2-14.2c0-7.8-6.3-14.2-14.2-14.2
				C-297.7,382.6-304,389-304,396.8"/>
		</defs>
		<clipPath id="SVGID_14_">
			<use xlink:href="#SVGID_13_"  overflow="visible"/>
		</clipPath>
		<path clip-path="url(#SVGID_14_)" fill="#FFFFFF" d="M-294.5,408.5c-0.1-0.1-0.2-0.1-0.3-0.2c-0.1,0-0.2-0.1-0.3-0.1l1.1-2.5
			c-0.3-0.1-0.5-0.2-0.8-0.3c0-0.1,0.1-0.1,0.1-0.2c0-0.1,0-0.1,0.1-0.2l2.1,0.9c0,0.1-0.1,0.1-0.1,0.2c0,0.1,0,0.1-0.1,0.2
			c-0.2-0.1-0.4-0.3-0.7-0.4L-294.5,408.5z"/>
	</g>
	<g>
		<defs>
			<path id="SVGID_15_" d="M-304,396.8c0,7.8,6.3,14.2,14.2,14.2c7.8,0,14.2-6.3,14.2-14.2c0-7.8-6.3-14.2-14.2-14.2
				C-297.7,382.6-304,389-304,396.8"/>
		</defs>
		<clipPath id="SVGID_16_">
			<use xlink:href="#SVGID_15_"  overflow="visible"/>
		</clipPath>
		<path clip-path="url(#SVGID_16_)" fill="#FFFFFF" d="M-290.5,406.4c0,0.1,0,0.1-0.1,0.2c0,0.1,0,0.1,0,0.2c-0.3-0.1-0.5-0.2-1-0.2
			l-0.2,0.9l0.4,0.1c0.2,0,0.4,0,0.5,0.1c0,0.1,0,0.1-0.1,0.2c0,0.1,0,0.1,0,0.2c-0.2,0-0.3-0.1-0.5-0.1l-0.4-0.1l-0.2,1.1
			c0.4,0.1,0.7,0.1,1,0.1c0,0.1,0,0.1-0.1,0.2c0,0.1,0,0.1,0,0.2l-1.6-0.3l0.5-2.9L-290.5,406.4z"/>
	</g>
	<g>
		<defs>
			<path id="SVGID_17_" d="M-304,396.8c0,7.8,6.3,14.2,14.2,14.2c7.8,0,14.2-6.3,14.2-14.2c0-7.8-6.3-14.2-14.2-14.2
				C-297.7,382.6-304,389-304,396.8"/>
		</defs>
		<clipPath id="SVGID_18_">
			<use xlink:href="#SVGID_17_"  overflow="visible"/>
		</clipPath>
		<path clip-path="url(#SVGID_18_)" fill="#FFFFFF" d="M-287.4,408.7l-0.1,0.4c-0.2,0.2-0.6,0.2-0.8,0.3c-0.9,0.1-1.7-0.4-1.8-1.3
			c-0.1-1.1,0.6-1.7,1.6-1.8c0.3,0,0.6,0,0.9,0.1c0,0.2,0,0.3-0.1,0.5l-0.1,0c-0.2-0.2-0.5-0.4-0.8-0.3c-0.7,0.1-0.9,0.8-0.9,1.4
			c0.1,0.7,0.5,1.2,1.2,1.2C-287.9,409-287.6,408.9-287.4,408.7L-287.4,408.7z"/>
	</g>
	<g>
		<defs>
			<path id="SVGID_19_" d="M-304,396.8c0,7.8,6.3,14.2,14.2,14.2c7.8,0,14.2-6.3,14.2-14.2c0-7.8-6.3-14.2-14.2-14.2
				C-297.7,382.6-304,389-304,396.8"/>
		</defs>
		<clipPath id="SVGID_20_">
			<use xlink:href="#SVGID_19_"  overflow="visible"/>
		</clipPath>
		<path clip-path="url(#SVGID_20_)" fill="#FFFFFF" d="M-284.9,408.4c-0.1,0-0.2,0.1-0.3,0.1c-0.1,0-0.2,0.1-0.3,0.1l-1-2.5
			c-0.3,0.1-0.5,0.2-0.7,0.4c0-0.1,0-0.1,0-0.2c0-0.1-0.1-0.1-0.1-0.2l2.1-0.8c0,0.1,0,0.1,0,0.2c0,0.1,0.1,0.1,0.1,0.2
			c-0.2,0.1-0.5,0.1-0.7,0.2L-284.9,408.4z"/>
	</g>
	<g>
		<defs>
			<path id="SVGID_21_" d="M-304,396.8c0,7.8,6.3,14.2,14.2,14.2c7.8,0,14.2-6.3,14.2-14.2c0-7.8-6.3-14.2-14.2-14.2
				C-297.7,382.6-304,389-304,396.8"/>
		</defs>
		<clipPath id="SVGID_22_">
			<use xlink:href="#SVGID_21_"  overflow="visible"/>
		</clipPath>
		<path clip-path="url(#SVGID_22_)" fill="#FFFFFF" d="M-283.6,404.1c0,0.1,0.1,0.1,0.1,0.2c0,0.1,0.1,0.1,0.1,0.1
			c-0.2,0.1-0.5,0.3-0.9,0.5l0.5,0.8l0.4-0.3c0.2-0.1,0.3-0.2,0.4-0.3c0,0.1,0.1,0.1,0.1,0.2c0,0.1,0.1,0.1,0.1,0.1
			c-0.1,0.1-0.3,0.2-0.5,0.3l-0.4,0.3l0.6,0.9c0.4-0.3,0.6-0.4,0.8-0.6c0,0.1,0.1,0.1,0.1,0.2c0,0.1,0.1,0.1,0.1,0.1l-1.4,1
			l-1.7-2.4L-283.6,404.1z"/>
	</g>
	<g>
		<defs>
			<path id="SVGID_23_" d="M-304,396.8c0,7.8,6.3,14.2,14.2,14.2c7.8,0,14.2-6.3,14.2-14.2c0-7.8-6.3-14.2-14.2-14.2
				C-297.7,382.6-304,389-304,396.8"/>
		</defs>
		<clipPath id="SVGID_24_">
			<use xlink:href="#SVGID_23_"  overflow="visible"/>
		</clipPath>
		<path clip-path="url(#SVGID_24_)" fill="#FFFFFF" d="M-282.2,402.6c0.6-0.7,1.4-0.6,1.9-0.2c0.8,0.6,0.8,1.5,0.2,2.2l-0.8,1
			l-2.3-1.8L-282.2,402.6z M-280.6,404.9l0.2-0.3c0.4-0.5,0.4-1-0.4-1.6c-0.6-0.5-1.1-0.4-1.5,0.1l-0.3,0.3L-280.6,404.9z"/>
	</g>
	<g>
		<defs>
			<path id="SVGID_25_" d="M-304,396.8c0,7.8,6.3,14.2,14.2,14.2c7.8,0,14.2-6.3,14.2-14.2c0-7.8-6.3-14.2-14.2-14.2
				C-297.7,382.6-304,389-304,396.8"/>
		</defs>
		<clipPath id="SVGID_26_">
			<use xlink:href="#SVGID_25_"  overflow="visible"/>
		</clipPath>
		<path clip-path="url(#SVGID_26_)" fill="#FFFFFF" d="M-292.4,386.7c0.1,0.1,0.3,0.2,0.5,0.2c0.2,0,0.4,0,0.6-0.2
			c0.1-0.2,0.2-0.4,0.3-0.6l0,0c-0.2,0.2-0.4,0.2-0.6,0.2c-0.5-0.1-0.8-0.4-0.7-1c0.1-0.3,0.2-0.6,0.4-0.7c0.2-0.2,0.4-0.2,0.7-0.2
			c0.2,0,0.3,0.1,0.5,0.2c0.1,0.1,0.2,0.2,0.2,0.3c0.1,0.3,0.1,0.6,0,1c-0.1,0.4-0.2,0.8-0.4,1.1c-0.2,0.3-0.6,0.4-1,0.4
			c-0.2,0-0.4-0.1-0.6-0.2L-292.4,386.7z M-291.5,385.9c0.1,0,0.2,0,0.3-0.1c0.1-0.1,0.1-0.2,0.1-0.4c0-0.1,0-0.3,0-0.4
			c0-0.1-0.1-0.2-0.3-0.2c-0.1,0-0.2,0-0.3,0.1c-0.1,0.1-0.1,0.2-0.2,0.3c0,0.1,0,0.3,0,0.4C-291.7,385.8-291.6,385.9-291.5,385.9"
			/>
	</g>
	<g>
		<defs>
			<path id="SVGID_27_" d="M-304,396.8c0,7.8,6.3,14.2,14.2,14.2c7.8,0,14.2-6.3,14.2-14.2c0-7.8-6.3-14.2-14.2-14.2
				C-297.7,382.6-304,389-304,396.8"/>
		</defs>
		<clipPath id="SVGID_28_">
			<use xlink:href="#SVGID_27_"  overflow="visible"/>
		</clipPath>
		<path clip-path="url(#SVGID_28_)" fill="#FFFFFF" d="M-288.4,385.5c-0.1,0-0.1-0.1-0.2-0.1c-0.1,0-0.2-0.1-0.3-0.1
			c-0.2,0-0.4,0-0.5,0.2c-0.1,0.2-0.2,0.4-0.3,0.6l0,0c0.2-0.2,0.4-0.2,0.6-0.2c0.5,0.1,0.7,0.4,0.7,1c-0.1,0.3-0.2,0.5-0.4,0.7
			c-0.2,0.2-0.4,0.2-0.7,0.2c-0.4-0.1-0.6-0.3-0.7-0.6c0-0.1-0.1-0.3-0.1-0.4c0-0.2,0-0.3,0-0.5c0.1-0.4,0.2-0.8,0.4-1.1
			c0.2-0.3,0.5-0.4,1-0.4c0.2,0,0.4,0.1,0.6,0.2L-288.4,385.5z M-289.3,386.3c-0.1,0-0.2,0-0.3,0.1c-0.1,0.1-0.1,0.2-0.2,0.4
			c0,0.1,0,0.3,0,0.4c0,0.1,0.1,0.2,0.3,0.2c0.1,0,0.2,0,0.3-0.1c0.1-0.1,0.1-0.2,0.1-0.3c0-0.1,0-0.3,0-0.4
			C-289,386.4-289.1,386.3-289.3,386.3"/>
	</g>
	<g>
		<defs>
			<path id="SVGID_29_" d="M-304,396.8c0,7.8,6.3,14.2,14.2,14.2c7.8,0,14.2-6.3,14.2-14.2c0-7.8-6.3-14.2-14.2-14.2
				C-297.7,382.6-304,389-304,396.8"/>
		</defs>
		<clipPath id="SVGID_30_">
			<use xlink:href="#SVGID_29_"  overflow="visible"/>
		</clipPath>
		<polygon clip-path="url(#SVGID_30_)" fill="#FFFFFF" points="-286.7,385.3 -286.2,385.4 -286.7,388.2 -287.3,388.1 -286.9,385.9 
			-287.4,386.2 -287.6,385.8 		"/>
	</g>
	<g>
		<defs>
			<path id="SVGID_31_" d="M-304,396.8c0,7.8,6.3,14.2,14.2,14.2c7.8,0,14.2-6.3,14.2-14.2c0-7.8-6.3-14.2-14.2-14.2
				C-297.7,382.6-304,389-304,396.8"/>
		</defs>
		<clipPath id="SVGID_32_">
			<use xlink:href="#SVGID_31_"  overflow="visible"/>
		</clipPath>
		<path clip-path="url(#SVGID_32_)" fill="#FFFFFF" d="M-285.2,387c-0.1-0.1-0.2-0.2-0.3-0.3c-0.1-0.1-0.1-0.3-0.1-0.4
			c0-0.3,0.2-0.4,0.4-0.5c0.2-0.1,0.4-0.1,0.7-0.1c0.3,0,0.5,0.1,0.6,0.3c0.2,0.1,0.2,0.3,0.2,0.6c0,0.1-0.1,0.3-0.2,0.4
			c-0.1,0.1-0.2,0.2-0.4,0.2v0c0.3,0.2,0.5,0.5,0.4,0.8c-0.1,0.3-0.2,0.5-0.4,0.6c-0.2,0.1-0.4,0.1-0.7,0.1c-0.3,0-0.5-0.2-0.7-0.3
			c-0.2-0.2-0.2-0.4-0.2-0.7C-285.7,387.3-285.5,387.1-285.2,387L-285.2,387z M-285.2,387.7c0,0.1,0,0.2,0.1,0.3
			c0.1,0.1,0.2,0.2,0.3,0.2c0.1,0,0.2,0,0.3-0.1c0.1-0.1,0.1-0.1,0.2-0.3c0-0.1,0-0.3-0.1-0.4c-0.1-0.1-0.2-0.2-0.3-0.2
			c-0.1,0-0.2,0.1-0.3,0.1C-285.2,387.5-285.2,387.6-285.2,387.7 M-285,386.3c0,0.1,0,0.1,0,0.2c0,0.1,0,0.1,0.1,0.1
			c0,0,0.1,0.1,0.1,0.1c0,0,0.1,0.1,0.1,0.1c0.1,0,0.2-0.1,0.2-0.1c0.1-0.1,0.1-0.1,0.1-0.2c0-0.1,0-0.2,0-0.3
			c0-0.1-0.1-0.1-0.2-0.1c-0.1,0-0.2,0-0.3,0C-284.9,386.1-285,386.2-285,386.3"/>
	</g>
	<g>
		<defs>
			<path id="SVGID_33_" d="M-304,396.8c0,7.8,6.3,14.2,14.2,14.2c7.8,0,14.2-6.3,14.2-14.2c0-7.8-6.3-14.2-14.2-14.2
				C-297.7,382.6-304,389-304,396.8"/>
		</defs>
		<clipPath id="SVGID_34_">
			<use xlink:href="#SVGID_33_"  overflow="visible"/>
		</clipPath>
		<path clip-path="url(#SVGID_34_)" fill="#FFFFFF" d="M-284.3,398.8c0,0-3.3,0-4.9-3.3c-2.2-4.5,2.4-6.8,2.4-6.8l4.1,0.7
			L-284.3,398.8z"/>
	</g>
	<g>
		<defs>
			<path id="SVGID_35_" d="M-304,396.8c0,7.8,6.3,14.2,14.2,14.2c7.8,0,14.2-6.3,14.2-14.2c0-7.8-6.3-14.2-14.2-14.2
				C-297.7,382.6-304,389-304,396.8"/>
		</defs>
		<clipPath id="SVGID_36_">
			<use xlink:href="#SVGID_35_"  overflow="visible"/>
		</clipPath>
		<path clip-path="url(#SVGID_36_)" fill="#FFFFFF" d="M-288.8,400.2c-0.2,0-0.4,0-0.6,0s-0.2,0.2-0.3,0.3c0,0.2,0,0.3,0.1,0.4
			c0.1,0.1,0.3,0.2,0.5,0.2c0.2,0,0.4,0,0.6,0c0.1-0.1,0.2-0.2,0.3-0.3c0-0.2,0-0.3-0.1-0.4C-288.4,400.3-288.6,400.2-288.8,400.2
			 M-294.5,399.8l0.7,0.1l-0.2-0.6L-294.5,399.8z M-290.8,397.1c-2.7-2.8-2.7-6.2-1-9.3l-2.3-0.4l-2.5,14.4l11.5,2l0.8-4.3
			C-284.4,399.4-288.1,399.9-290.8,397.1 M-293.5,400.6l-0.1-0.3l-1-0.2l-0.2,0.3l-0.6-0.1l1.2-1.2l0.6,0.1l0.7,1.6L-293.5,400.6z
			 M-290.4,399.9l-0.8-0.1l-0.2,1.1l-0.6-0.1l0.2-1.1l-0.8-0.1l0-0.2l2.2,0.4L-290.4,399.9z M-287.6,400.9c0,0.2-0.2,0.4-0.5,0.5
			c-0.2,0.1-0.5,0.1-0.9,0c-0.4-0.1-0.7-0.2-0.9-0.3c-0.3-0.2-0.4-0.4-0.3-0.6c0-0.3,0.2-0.4,0.5-0.5c0.2-0.1,0.5-0.1,0.9,0
			c0.4,0.1,0.7,0.2,0.9,0.3C-287.6,400.4-287.5,400.6-287.6,400.9 M-285.3,402l-1.9-0.3l0.2-1.4l0.6,0.1l-0.2,1.1l1.4,0.2
			L-285.3,402z"/>
	</g>
	<g>
		<defs>
			<path id="SVGID_37_" d="M-304,396.8c0,7.8,6.3,14.2,14.2,14.2c7.8,0,14.2-6.3,14.2-14.2c0-7.8-6.3-14.2-14.2-14.2
				C-297.7,382.6-304,389-304,396.8"/>
		</defs>
		<clipPath id="SVGID_38_">
			<use xlink:href="#SVGID_37_"  overflow="visible"/>
		</clipPath>
		<path clip-path="url(#SVGID_38_)" fill="#FFFFFF" d="M-303.8,394.4c-1.4,7.7,3.8,15.1,11.5,16.4s15.1-3.8,16.4-11.5
			c0.1-0.8,0.2-1.7,0.2-2.5c0-6.8-4.9-12.8-11.7-14C-295.1,381.5-302.4,386.6-303.8,394.4 M-292.1,409.9c-7.2-1.3-12-8.2-10.8-15.4
			c1.3-7.2,8.2-12,15.4-10.8c7.2,1.3,12,8.2,10.8,15.4C-278,406.3-284.9,411.2-292.1,409.9"/>
	</g>
	<g>
		<defs>
			<path id="SVGID_39_" d="M-304,396.8c0,7.8,6.3,14.2,14.2,14.2c7.8,0,14.2-6.3,14.2-14.2c0-7.8-6.3-14.2-14.2-14.2
				C-297.7,382.6-304,389-304,396.8"/>
		</defs>
		<clipPath id="SVGID_40_">
			<use xlink:href="#SVGID_39_"  overflow="visible"/>
		</clipPath>
		<path clip-path="url(#SVGID_40_)" fill="#FFFFFF" d="M-302,399.9c0-0.1,0-0.2-0.1-0.3c0-0.1-0.1-0.2-0.1-0.3l2.9-0.8l0.3,1
			c0.2,0.6,0,1-0.5,1.1c-0.7,0.2-1.1-0.3-1.3-1.1L-302,399.9z M-300.5,399.5c0,0.1,0.1,0.2,0.1,0.3c0.2,0.3,0.4,0.3,0.7,0.2
			c0.3-0.1,0.5-0.3,0.5-0.5l-0.1-0.3L-300.5,399.5z"/>
	</g>
	<g>
		<defs>
			<path id="SVGID_41_" d="M-304,396.8c0,7.8,6.3,14.2,14.2,14.2c7.8,0,14.2-6.3,14.2-14.2c0-7.8-6.3-14.2-14.2-14.2
				C-297.7,382.6-304,389-304,396.8"/>
		</defs>
		<clipPath id="SVGID_42_">
			<use xlink:href="#SVGID_41_"  overflow="visible"/>
		</clipPath>
		<path clip-path="url(#SVGID_42_)" fill="#FFFFFF" d="M-298.6,400.8l0.5,0.8c0.1,0.2,0.3,0.4,0.3,0.7c0,0.3-0.1,0.5-0.3,0.6
			c-0.4,0.2-0.7,0.1-1-0.2c-0.2,0.4-0.4,0.9-0.7,1.3l-0.1,0.3c-0.1-0.1-0.1-0.2-0.2-0.4c-0.1-0.1-0.1-0.2-0.2-0.3l0.5-0.9
			c0.1-0.1,0.2-0.3,0.3-0.5l0,0l-1.2,0.7c0-0.1-0.1-0.2-0.1-0.3c-0.1-0.1-0.1-0.2-0.2-0.3L-298.6,400.8z M-299.4,402.1
			c0.2,0.4,0.5,0.5,0.9,0.3c0.1,0,0.1-0.1,0.2-0.1c0.3-0.2,0.1-0.5-0.1-0.7L-299.4,402.1z"/>
	</g>
	<g>
		<defs>
			<path id="SVGID_43_" d="M-304,396.8c0,7.8,6.3,14.2,14.2,14.2c7.8,0,14.2-6.3,14.2-14.2c0-7.8-6.3-14.2-14.2-14.2
				C-297.7,382.6-304,389-304,396.8"/>
		</defs>
		<clipPath id="SVGID_44_">
			<use xlink:href="#SVGID_43_"  overflow="visible"/>
		</clipPath>
		<path clip-path="url(#SVGID_44_)" fill="#FFFFFF" d="M-298.1,406.3c-0.7-0.6-0.8-1.5-0.2-2.2c0.6-0.7,1.5-0.8,2.3,0
			c0.9,0.8,0.6,1.7,0.2,2.2C-296.4,406.9-297.3,407-298.1,406.3 M-297.9,404.6c-0.4,0.4-0.6,1-0.1,1.5c0.5,0.4,1.2,0.1,1.6-0.4
			c0.4-0.4,0.6-1.1,0.1-1.5C-296.7,403.8-297.2,403.9-297.9,404.6"/>
	</g>
	<g>
		<defs>
			<path id="SVGID_45_" d="M-304,396.8c0,7.8,6.3,14.2,14.2,14.2c7.8,0,14.2-6.3,14.2-14.2c0-7.8-6.3-14.2-14.2-14.2
				C-297.7,382.6-304,389-304,396.8"/>
		</defs>
		<clipPath id="SVGID_46_">
			<use xlink:href="#SVGID_45_"  overflow="visible"/>
		</clipPath>
		<path clip-path="url(#SVGID_46_)" fill="#FFFFFF" d="M-294.5,408.5c-0.1-0.1-0.2-0.1-0.3-0.2c-0.1,0-0.2-0.1-0.3-0.1l1.1-2.5
			c-0.3-0.1-0.5-0.2-0.8-0.3c0-0.1,0.1-0.1,0.1-0.2c0-0.1,0-0.1,0.1-0.2l2.1,0.9c0,0.1-0.1,0.1-0.1,0.2c0,0.1,0,0.1-0.1,0.2
			c-0.2-0.1-0.4-0.3-0.7-0.4L-294.5,408.5z"/>
	</g>
	<g>
		<defs>
			<path id="SVGID_47_" d="M-304,396.8c0,7.8,6.3,14.2,14.2,14.2c7.8,0,14.2-6.3,14.2-14.2c0-7.8-6.3-14.2-14.2-14.2
				C-297.7,382.6-304,389-304,396.8"/>
		</defs>
		<clipPath id="SVGID_48_">
			<use xlink:href="#SVGID_47_"  overflow="visible"/>
		</clipPath>
		<path clip-path="url(#SVGID_48_)" fill="#FFFFFF" d="M-290.5,406.4c0,0.1,0,0.1-0.1,0.2c0,0.1,0,0.1,0,0.2c-0.3-0.1-0.5-0.2-1-0.2
			l-0.2,0.9l0.4,0.1c0.2,0,0.4,0,0.5,0.1c0,0.1,0,0.1-0.1,0.2c0,0.1,0,0.1,0,0.2c-0.2,0-0.3-0.1-0.5-0.1l-0.4-0.1l-0.2,1.1
			c0.4,0.1,0.7,0.1,1,0.1c0,0.1,0,0.1-0.1,0.2c0,0.1,0,0.1,0,0.2l-1.6-0.3l0.5-2.9L-290.5,406.4z"/>
	</g>
	<g>
		<defs>
			<path id="SVGID_49_" d="M-304,396.8c0,7.8,6.3,14.2,14.2,14.2c7.8,0,14.2-6.3,14.2-14.2c0-7.8-6.3-14.2-14.2-14.2
				C-297.7,382.6-304,389-304,396.8"/>
		</defs>
		<clipPath id="SVGID_50_">
			<use xlink:href="#SVGID_49_"  overflow="visible"/>
		</clipPath>
		<path clip-path="url(#SVGID_50_)" fill="#FFFFFF" d="M-287.4,408.7l-0.1,0.4c-0.2,0.2-0.6,0.2-0.8,0.3c-0.9,0.1-1.7-0.4-1.8-1.3
			c-0.1-1.1,0.6-1.7,1.6-1.8c0.3,0,0.6,0,0.9,0.1c0,0.2,0,0.3-0.1,0.5l-0.1,0c-0.2-0.2-0.5-0.4-0.8-0.3c-0.7,0.1-0.9,0.8-0.9,1.4
			c0.1,0.7,0.5,1.2,1.2,1.2C-287.9,409-287.6,408.9-287.4,408.7L-287.4,408.7z"/>
	</g>
	<g>
		<defs>
			<path id="SVGID_51_" d="M-304,396.8c0,7.8,6.3,14.2,14.2,14.2c7.8,0,14.2-6.3,14.2-14.2c0-7.8-6.3-14.2-14.2-14.2
				C-297.7,382.6-304,389-304,396.8"/>
		</defs>
		<clipPath id="SVGID_52_">
			<use xlink:href="#SVGID_51_"  overflow="visible"/>
		</clipPath>
		<path clip-path="url(#SVGID_52_)" fill="#FFFFFF" d="M-284.9,408.4c-0.1,0-0.2,0.1-0.3,0.1c-0.1,0-0.2,0.1-0.3,0.1l-1-2.5
			c-0.3,0.1-0.5,0.2-0.7,0.4c0-0.1,0-0.1,0-0.2c0-0.1-0.1-0.1-0.1-0.2l2.1-0.8c0,0.1,0,0.1,0,0.2c0,0.1,0.1,0.1,0.1,0.2
			c-0.2,0.1-0.5,0.1-0.7,0.2L-284.9,408.4z"/>
	</g>
	<g>
		<defs>
			<path id="SVGID_53_" d="M-304,396.8c0,7.8,6.3,14.2,14.2,14.2c7.8,0,14.2-6.3,14.2-14.2c0-7.8-6.3-14.2-14.2-14.2
				C-297.7,382.6-304,389-304,396.8"/>
		</defs>
		<clipPath id="SVGID_54_">
			<use xlink:href="#SVGID_53_"  overflow="visible"/>
		</clipPath>
		<path clip-path="url(#SVGID_54_)" fill="#FFFFFF" d="M-283.6,404.1c0,0.1,0.1,0.1,0.1,0.2c0,0.1,0.1,0.1,0.1,0.1
			c-0.2,0.1-0.5,0.3-0.9,0.5l0.5,0.8l0.4-0.3c0.2-0.1,0.3-0.2,0.4-0.3c0,0.1,0.1,0.1,0.1,0.2c0,0.1,0.1,0.1,0.1,0.1
			c-0.1,0.1-0.3,0.2-0.5,0.3l-0.4,0.3l0.6,0.9c0.4-0.3,0.6-0.4,0.8-0.6c0,0.1,0.1,0.1,0.1,0.2c0,0.1,0.1,0.1,0.1,0.1l-1.4,1
			l-1.7-2.4L-283.6,404.1z"/>
	</g>
	<g>
		<defs>
			<path id="SVGID_55_" d="M-304,396.8c0,7.8,6.3,14.2,14.2,14.2c7.8,0,14.2-6.3,14.2-14.2c0-7.8-6.3-14.2-14.2-14.2
				C-297.7,382.6-304,389-304,396.8"/>
		</defs>
		<clipPath id="SVGID_56_">
			<use xlink:href="#SVGID_55_"  overflow="visible"/>
		</clipPath>
		<path clip-path="url(#SVGID_56_)" fill="#FFFFFF" d="M-282.2,402.6c0.6-0.7,1.4-0.6,1.9-0.2c0.8,0.6,0.8,1.5,0.2,2.2l-0.8,1
			l-2.3-1.8L-282.2,402.6z M-280.6,404.9l0.2-0.3c0.4-0.5,0.4-1-0.4-1.6c-0.6-0.5-1.1-0.4-1.5,0.1l-0.3,0.3L-280.6,404.9z"/>
	</g>
	<g>
		<defs>
			<path id="SVGID_57_" d="M-304,396.8c0,7.8,6.3,14.2,14.2,14.2c7.8,0,14.2-6.3,14.2-14.2c0-7.8-6.3-14.2-14.2-14.2
				C-297.7,382.6-304,389-304,396.8"/>
		</defs>
		<clipPath id="SVGID_58_">
			<use xlink:href="#SVGID_57_"  overflow="visible"/>
		</clipPath>
		<path clip-path="url(#SVGID_58_)" fill="#FFFFFF" d="M-292.4,386.7c0.1,0.1,0.3,0.2,0.5,0.2c0.2,0,0.4,0,0.6-0.2
			c0.1-0.2,0.2-0.4,0.3-0.6l0,0c-0.2,0.2-0.4,0.2-0.6,0.2c-0.5-0.1-0.8-0.4-0.7-1c0.1-0.3,0.2-0.6,0.4-0.7c0.2-0.2,0.4-0.2,0.7-0.2
			c0.2,0,0.3,0.1,0.5,0.2c0.1,0.1,0.2,0.2,0.2,0.3c0.1,0.3,0.1,0.6,0,1c-0.1,0.4-0.2,0.8-0.4,1.1c-0.2,0.3-0.6,0.4-1,0.4
			c-0.2,0-0.4-0.1-0.6-0.2L-292.4,386.7z M-291.5,385.9c0.1,0,0.2,0,0.3-0.1c0.1-0.1,0.1-0.2,0.1-0.4c0-0.1,0-0.3,0-0.4
			c0-0.1-0.1-0.2-0.3-0.2c-0.1,0-0.2,0-0.3,0.1c-0.1,0.1-0.1,0.2-0.2,0.3c0,0.1,0,0.3,0,0.4C-291.7,385.8-291.6,385.9-291.5,385.9"
			/>
	</g>
	<g>
		<defs>
			<path id="SVGID_59_" d="M-304,396.8c0,7.8,6.3,14.2,14.2,14.2c7.8,0,14.2-6.3,14.2-14.2c0-7.8-6.3-14.2-14.2-14.2
				C-297.7,382.6-304,389-304,396.8"/>
		</defs>
		<clipPath id="SVGID_60_">
			<use xlink:href="#SVGID_59_"  overflow="visible"/>
		</clipPath>
		<path clip-path="url(#SVGID_60_)" fill="#FFFFFF" d="M-288.4,385.5c-0.1,0-0.1-0.1-0.2-0.1c-0.1,0-0.2-0.1-0.3-0.1
			c-0.2,0-0.4,0-0.5,0.2c-0.1,0.2-0.2,0.4-0.3,0.6l0,0c0.2-0.2,0.4-0.2,0.6-0.2c0.5,0.1,0.7,0.4,0.7,1c-0.1,0.3-0.2,0.5-0.4,0.7
			c-0.2,0.2-0.4,0.2-0.7,0.2c-0.4-0.1-0.6-0.3-0.7-0.6c0-0.1-0.1-0.3-0.1-0.4c0-0.2,0-0.3,0-0.5c0.1-0.4,0.2-0.8,0.4-1.1
			c0.2-0.3,0.5-0.4,1-0.4c0.2,0,0.4,0.1,0.6,0.2L-288.4,385.5z M-289.3,386.3c-0.1,0-0.2,0-0.3,0.1c-0.1,0.1-0.1,0.2-0.2,0.4
			c0,0.1,0,0.3,0,0.4c0,0.1,0.1,0.2,0.3,0.2c0.1,0,0.2,0,0.3-0.1c0.1-0.1,0.1-0.2,0.1-0.3c0-0.1,0-0.3,0-0.4
			C-289,386.4-289.1,386.3-289.3,386.3"/>
	</g>
	<g>
		<defs>
			<path id="SVGID_61_" d="M-304,396.8c0,7.8,6.3,14.2,14.2,14.2c7.8,0,14.2-6.3,14.2-14.2c0-7.8-6.3-14.2-14.2-14.2
				C-297.7,382.6-304,389-304,396.8"/>
		</defs>
		<clipPath id="SVGID_62_">
			<use xlink:href="#SVGID_61_"  overflow="visible"/>
		</clipPath>
		<polygon clip-path="url(#SVGID_62_)" fill="#FFFFFF" points="-286.7,385.3 -286.2,385.4 -286.7,388.2 -287.3,388.1 -286.9,385.9 
			-287.4,386.2 -287.6,385.8 		"/>
	</g>
	<g>
		<defs>
			<path id="SVGID_63_" d="M-304,396.8c0,7.8,6.3,14.2,14.2,14.2c7.8,0,14.2-6.3,14.2-14.2c0-7.8-6.3-14.2-14.2-14.2
				C-297.7,382.6-304,389-304,396.8"/>
		</defs>
		<clipPath id="SVGID_64_">
			<use xlink:href="#SVGID_63_"  overflow="visible"/>
		</clipPath>
		<path clip-path="url(#SVGID_64_)" fill="#FFFFFF" d="M-285.2,387c-0.1-0.1-0.2-0.2-0.3-0.3c-0.1-0.1-0.1-0.3-0.1-0.4
			c0-0.3,0.2-0.4,0.4-0.5c0.2-0.1,0.4-0.1,0.7-0.1c0.3,0,0.5,0.1,0.6,0.3c0.2,0.1,0.2,0.3,0.2,0.6c0,0.1-0.1,0.3-0.2,0.4
			c-0.1,0.1-0.2,0.2-0.4,0.2v0c0.3,0.2,0.5,0.5,0.4,0.8c-0.1,0.3-0.2,0.5-0.4,0.6c-0.2,0.1-0.4,0.1-0.7,0.1c-0.3,0-0.5-0.2-0.7-0.3
			c-0.2-0.2-0.2-0.4-0.2-0.7C-285.7,387.3-285.5,387.1-285.2,387L-285.2,387z M-285.2,387.7c0,0.1,0,0.2,0.1,0.3
			c0.1,0.1,0.2,0.2,0.3,0.2c0.1,0,0.2,0,0.3-0.1c0.1-0.1,0.1-0.1,0.2-0.3c0-0.1,0-0.3-0.1-0.4c-0.1-0.1-0.2-0.2-0.3-0.2
			c-0.1,0-0.2,0.1-0.3,0.1C-285.2,387.5-285.2,387.6-285.2,387.7 M-285,386.3c0,0.1,0,0.1,0,0.2c0,0.1,0,0.1,0.1,0.1
			c0,0,0.1,0.1,0.1,0.1c0,0,0.1,0.1,0.1,0.1c0.1,0,0.2-0.1,0.2-0.1c0.1-0.1,0.1-0.1,0.1-0.2c0-0.1,0-0.2,0-0.3
			c0-0.1-0.1-0.1-0.2-0.1c-0.1,0-0.2,0-0.3,0C-284.9,386.1-285,386.2-285,386.3"/>
	</g>
</g>
</svg>
