<?xml version="1.0" encoding="utf-8"?>
<!-- Generator: Adobe Illustrator 13.0.0, SVG Export Plug-In . SVG Version: 6.00 Build 14948)  -->
<!DOCTYPE svg PUBLIC "-//W3C//DTD SVG 1.1//EN" "http://www.w3.org/Graphics/SVG/1.1/DTD/svg11.dtd">
<svg version="1.1" id="Layer_1" xmlns="http://www.w3.org/2000/svg" xmlns:xlink="http://www.w3.org/1999/xlink" x="0px" y="0px"
	 width="430.919px" height="108.163px" viewBox="0 0 430.919 108.163" enable-background="new 0 0 430.919 108.163"
	 xml:space="preserve">
<g>
	<path fill="#D1010E" d="M80.702,42.155l-1.732,6.76h6.5c0,0-1.35,6.273-2.334,10.835c-0.731,3.393-2.846,12.232-1.33,15.516
		c1.101,2.369,3.99,3.817,6.292,3.948c4.754,0.271,10.54,0.156,10.54,0.156l1.648-8.783l-3.564,0.089c0,0-3.122,0.147-3.561-1.458
		c-0.977-3.553,3.486-20.303,3.486-20.303h8.127l1.215-6.66l-7.783-0.1l2.451-10.997c0,0-6.219-0.18-7.684,0
		c-2.029,0.259-3.656,2.656-4.394,4.858c-0.889,2.659-1.461,6.118-1.461,6.118L80.702,42.155z"/>
	<path fill="#D1010E" d="M101.561,79.366c0,0,0.928-6.729,4.307-11.154c4.474-5.862,15.175-10.566,18.547-12.146
		c6.152-2.882,9.81-6.699,9.81-10.078c0-2.387-1.918-6.039-6.496-6.039c-4.574,0-8.508,3.838-8.959,8.967
		c-1.316-0.008-3.127-0.008-6.109-0.008c-1.291,0-5.606,0.008-5.606,0.008s1.658-9.151,7.047-13.18
		c4.324-3.227,7.594-4.601,13.537-4.846c6.766-0.281,13.17,2.102,16.102,6.765c2.802,4.468,3.621,11.844-0.606,16.518
		c-3.713,4.092-7.527,6.345-10.869,8.277c-4.519,2.626-10.586,5.695-12.344,6.562c-1.484,0.742-1.248,1.489-1.248,1.489
		s16.28-0.004,19.565-0.004c2.937,0,4.51-1.146,4.51-1.146s1.259,4.089-0.749,6.816c-0.716,0.959-2.765,3.199-6.334,3.199H101.561z"
		/>
	<path fill="#D1010E" d="M67.893,56.661l-14.875,0.056c0,0,1.145-7.527,8.448-7.527C68.165,49.189,67.893,56.661,67.893,56.661
		 M61.327,41.929c-5.66,0.207-10.193,1.166-15.08,6.336c-5.217,5.502-6.197,20.295-4.75,23.301
		c1.443,3.017,4.047,8.674,17.066,9.092c15.061,0.476,18.682-12.159,18.682-12.159l-11.934-0.021c0,0-0.119,3.974-6.265,4.096
		c-8.67,0.177-6.76-8.68-6.76-8.68l26.523,0.01c0,0,0.032-0.532,0.481-7.475C79.775,48.965,72.839,41.508,61.327,41.929"/>
	<path fill="#D1010E" d="M34.362,45.288l3.021,7.227l-1.373-0.021l-5.236-7.216c0,0-1.387-0.024-1.94-0.049
		c-0.23-0.009-0.552-0.023-0.898-0.082c-0.473,2.91-1.104,6.7-1.91,10.851c-1.588,8.104-1.467,13.852-8.453,13.852
		c-2.219,0-4.317-1.024-4.325-2.663c-0.015-2.964,0.438-8.106,0.438-8.106L1.869,59.027c0,0-0.531,4.94-0.531,10.205
		c0,4.769,5.203,10.953,15.496,10.924c7.86-0.032,13.065-1.864,17.588-8.289c2.26-3.211,3.375-10.844,5.137-19.2
		c0.517-2.418,1.033-4.873,1.539-7.201l-0.459-0.54L34.362,45.288z M37.93,31.203c-2.297,0.04-5.037,0.491-6.578,2.337
		c-1.551,1.856-2.395,5.404-2.779,7.654c-0.092,0.56-0.207,1.27-0.336,2.072c0.228-0.023,0.435-0.023,0.601-0.034
		c0.555-0.019,1.936-0.045,1.936-0.045l5.236-7.214l1.373-0.025l-3.021,7.23l6.277,0.352l1.168-1.359
		c1.352-6.239,2.393-10.968,2.393-10.968S40.233,31.158,37.93,31.203"/>
</g>
<g>
	<defs>
		<path id="SVGID_1_" d="M241.872,46.26l-6.231,33.396h10.495l6.229-33.396H241.872z M345.798,46.26l-10.212,21.08h-0.116
			l-2.709-21.08h-10.558l6.635,33.263c-1.167,3.271-2.979,5.346-5.741,5.495v0.025c-4.436-0.16-4.4-2.978-4.755-2.263
			c-4.976,10.576,4.358,11.086,4.358,11.086s0.002-0.01,0.002-0.021c0.412,0.021,0.843,0.031,1.289,0.031
			c6.636,0,10.037-3.914,13.096-9.809l19.727-37.809H345.798z M195.383,64.908c0-5.323,3.115-11.343,8.133-11.343
			c4.041,0,5.421,3.27,5.421,6.729c0,7.563-3.054,12.05-7.902,12.05c-0.034,0.001-0.069,0.001-0.103,0.001
			C197.479,72.345,195.383,69.353,195.383,64.908 M184.656,65.162c0,8.396,4.499,15.256,15.632,15.256
			c11.245,0,19.378-6.086,19.378-19.995c0-8.395-5.422-14.933-15.629-14.933C192.271,45.49,184.656,53.437,184.656,65.162
			 M297.93,69.396c0-2.952,3.634-4.938,8.593-4.743c0.632,0,1.902,0,2.77,0.187c-0.751,4.485-3.406,7.89-7.846,7.89
			C299.251,72.729,297.93,70.934,297.93,69.396 M296.137,47.411l-1.036,8.396c3.461-1.984,6.002-2.628,9.75-2.628
			c3.403,0,5.535,1.925,5.535,4.296c0,0.446,0,0.895-0.118,1.345c-1.439-0.129-3.513-0.322-5.59-0.322
			c-9.173,0-16.557,4.04-16.557,12.242c0,6.471,3.577,9.678,10.036,9.678c4.037,0,7.902-1.604,10.097-5.45v-0.125l0.114,0.125
			l-0.463,4.688h8.479c1.154-10.072,3.811-17.565,3.811-22.82c0-8.204-5.884-11.345-13.04-11.345
			C302.485,45.49,299.194,46.26,296.137,47.411 M355.599,56.448c0,11.023,12.4,8.59,12.4,13.335c0,2.755-4.153,2.946-5.824,2.946
			c-2.883,0-5.771-0.638-8.425-1.923l-2.072,7.88c3.229,1.026,8.072,1.795,12.63,1.731c7.792-0.131,14.072-4.231,14.072-12.496
			c0-8.402-12.975-8.138-12.975-11.86c0-2.304,2.537-2.882,4.844-2.882c3.117,0,5.65,0.644,8.305,1.86l2.194-7.56
			c-3.752-1.35-7.382-1.99-9.978-1.99C363.788,45.49,355.599,48.631,355.599,56.448 M244.521,32.354l-1.613,8.457h10.498
			l1.615-8.457H244.521z M263.612,64.716c0-5.196,2.939-10.384,7.844-10.384c3.461,0,4.959,3.462,4.959,6.792
			c0,4.425-2.941,10.449-7.842,10.449C265.284,71.573,263.612,68.821,263.612,64.716 M287.185,31.62
			c-4.146-0.2-5.347,4.784-5.398,4.834c-0.639,1.891-1.192,5.07-1.192,5.07l-1.937,10.24l-0.032-0.119h-0.072
			c-1.558-3.588-5.194-6.155-10.44-6.155c-10.269,0-15.227,10.189-15.227,21.145c0,7.5,4.729,13.783,11.188,13.783
			c5.766,0,8.248-2.367,10.9-6.086h0.114l-0.804,5.323h9.512c0.117-1.354,0.291-3.021,0.634-5.01l8.067-42.994
			c-1.144-0.027-3.11-0.065-4.303-0.065C287.6,31.586,287.197,31.596,287.185,31.62 M160.272,31.62
			c-4.149-0.2-5.348,4.784-5.397,4.834c-0.268,0.788-0.52,1.8-0.727,2.72l-6.802,35.89l-0.866,4.592h10.38l2.943-15.39
			c0.746-4.937,3.342-9.161,7.726-9.161c2.883-0.132,4.036,1.86,4.036,3.84c0,1.732-0.4,3.4-0.692,5.065l-2.883,15.646h10.727
			l2.77-15.578c0.632-3.526,0.806-4.812,0.806-7.051c0-6.539-3.287-11.536-9.344-11.536c-4.844,0-8.302,2.505-10.439,5.638h-0.113
			l3.677-19.464c-0.966-0.027-3.385-0.079-4.776-0.079C160.694,31.585,160.284,31.596,160.272,31.62 M233.63,31.62
			c-4.146-0.2-5.346,4.784-5.398,4.834c-0.64,1.891-1.199,5.07-1.199,5.07l-1.092,5.803l-6.05,32.328h10.497l8.982-47.995
			c-1.003-0.024-3.363-0.075-4.726-0.075C234.047,31.585,233.643,31.596,233.63,31.62"/>
	</defs>
	<clipPath id="SVGID_2_">
		<use xlink:href="#SVGID_1_"  overflow="visible"/>
	</clipPath>
	
		<linearGradient id="SVGID_3_" gradientUnits="userSpaceOnUse" x1="-0.376" y1="155.6816" x2="0.624" y2="155.6816" gradientTransform="matrix(0 62.2925 62.2925 0 -9434.127 55.0125)">
		<stop  offset="0" style="stop-color:#F9B800"/>
		<stop  offset="0.2692" style="stop-color:#F9B800"/>
		<stop  offset="0.8077" style="stop-color:#D1010E"/>
		<stop  offset="1" style="stop-color:#D1010E"/>
	</linearGradient>
	<rect x="146.48" y="31.42" clip-path="url(#SVGID_2_)" fill="url(#SVGID_3_)" width="234.268" height="62.457"/>
</g>
<g>
	<path fill="#F9B800" d="M361.353,23.343c1.617-1.59,0.236-4.729-2.229-8.125c-2.369-3.271-6.129-3.662-7.738-2.063
		c-1.617,1.583-1.43,5.413,1.887,7.826C356.544,23.357,359.735,24.933,361.353,23.343"/>
	<path fill="#F9B800" d="M380.919,14.179c2.258-0.279,3.072-3.607,3.186-7.797c0.115-4.038-2.631-6.64-4.881-6.361
		c-2.25,0.271-4.424,3.425-3.268,7.364C377.099,11.265,378.683,14.449,380.919,14.179"/>
	<path fill="#F9B800" d="M401.878,18.174c1.904,1.236,4.668-0.794,7.449-3.925c2.678-3.02,2.246-6.778,0.352-8.014
		c-1.906-1.234-5.6-0.223-7.242,3.535C400.831,13.474,399.981,16.94,401.878,18.174"/>
	<path fill="#F9B800" d="M415.899,33.173c0.76,2.131,4.184,2.209,8.299,1.405c3.967-0.759,5.912-3.995,5.15-6.144
		c-0.758-2.134-4.301-3.583-7.896-1.588C417.917,28.804,415.146,31.027,415.899,33.173"/>
	<path fill="#F9B800" d="M416.942,52.602c-0.494,2.211,2.371,4.087,6.279,5.594c3.777,1.457,7.143-0.266,7.631-2.479
		c0.488-2.217-1.75-5.313-5.854-5.535C420.963,49.964,417.425,50.385,416.942,52.602"/>
	<path fill="#F9B800" d="M407.101,70.541c-1.805,1.38-0.822,4.662,1.211,8.33c1.957,3.537,5.639,4.384,7.441,3.002
		c1.795-1.383,2.072-5.202-0.928-8.006C411.872,71.109,408.896,69.16,407.101,70.541"/>
	<path fill="#F9B800" d="M360.868,31.956c0,0-1.365,2.289-0.416,2.985c0,0,0.453,1.389,3.141-1.34c0.137,0,14.76-15.287,33.1-0.41
		c0,0.132,15.752,13.679,0.479,33.98c0.133,0-2.111,1.896-1.23,3.139c0,0,0.77,1.639,3.818-0.955
		c0.271,0,23.789-21.699,3.143-42.168c0.115,0-20.789-19.106-41.225,3.683L360.868,31.956z"/>
	<path fill="#D1010E" d="M383.325,38.166c2.123,0,3.814,1.726,3.814,3.884c0,2.197-1.691,3.902-3.832,3.902
		c-2.125,0-3.852-1.705-3.852-3.902c0-2.158,1.727-3.884,3.852-3.884H383.325z M383.308,38.769c-1.711,0-3.109,1.468-3.109,3.281
		c0,1.849,1.398,3.301,3.127,3.301c1.727,0.016,3.109-1.452,3.109-3.284c0-1.83-1.383-3.298-3.109-3.298H383.308z M382.581,44.313
		h-0.688v-4.334c0.36-0.053,0.708-0.104,1.226-0.104c0.656,0,1.086,0.139,1.344,0.328c0.262,0.19,0.398,0.483,0.398,0.897
		c0,0.572-0.379,0.913-0.846,1.055v0.033c0.383,0.069,0.639,0.414,0.727,1.054c0.104,0.673,0.207,0.931,0.275,1.07h-0.725
		c-0.102-0.14-0.209-0.532-0.293-1.104c-0.105-0.551-0.381-0.758-0.934-0.758h-0.484V44.313z M382.581,41.915h0.502
		c0.57,0,1.055-0.209,1.055-0.744c0-0.379-0.277-0.758-1.055-0.758c-0.225,0-0.379,0.017-0.502,0.03V41.915z"/>
	<path fill="#D1010E" d="M2.563,87.961h5.529c4.721,0,7.133,1.751,7.133,5.04c0,3.481-2.392,5.488-6.833,5.488H5.446l-0.898,5.744H0
		L2.563,87.961z M8.178,95.264c1.58,0,2.371-0.683,2.371-2.135c0-1.261-0.726-1.9-2.157-1.9H6.619l-0.64,4.035H8.178z"/>
	<path fill="#D1010E" d="M21.676,104.232l-0.023-1.004c-1.174,0.876-2.241,1.304-3.266,1.304c-1.858,0-3.16-1.323-3.16-3.183
		c0-2.647,2.412-4.143,7.068-4.143h0.191c0.086-0.448,0.129-0.747,0.129-0.939c0-0.705-0.406-1.09-1.111-1.09
		c-0.854,0-1.409,0.385-1.965,1.304l-3.266-0.769c0.981-2.157,2.776-3.203,5.403-3.203c3.01,0,4.74,1.302,4.74,3.118
		c0,0.384-0.043,0.896-0.15,1.558l-0.641,4.016c-0.105,0.597-0.148,1.11-0.148,1.516c0,0.47,0.021,0.983,0.063,1.516H21.676z
		 M21.461,99.15c-1.537,0-2.498,0.813-2.498,1.943c0,0.555,0.492,1.025,1.195,1.025c0.492,0,1.047-0.235,1.688-0.685l0.299-2.24
		C21.867,99.172,21.633,99.15,21.461,99.15"/>
	<path fill="#D1010E" d="M38.333,100.625c-0.684,2.563-2.52,3.949-5.211,3.949c-3.203,0-5.316-2.156-5.316-5.466
		c0-1.644,0.447-3.054,1.323-4.186c1.218-1.559,2.989-2.412,4.847-2.412c2.605,0,4.4,1.537,4.656,4.056l-3.353,0.3
		c-0.128-1.132-0.448-1.623-1.217-1.623c-1.26,0-2.178,1.687-2.178,4.654c0,1.388,0.597,2.115,1.709,2.115
		c0.832,0,1.686-0.662,2.22-1.922L38.333,100.625z"/>
	<polygon fill="#D1010E" points="39.336,104.233 41.899,87.962 45.786,87.962 44.375,96.909 47.984,92.766 51.829,92.766 
		48.219,96.673 50.739,104.233 46.683,104.233 45.273,99.684 43.672,101.415 43.224,104.233 	"/>
	<path fill="#D1010E" d="M57.616,104.232l-0.022-1.004c-1.173,0.876-2.242,1.304-3.265,1.304c-1.86,0-3.161-1.323-3.161-3.183
		c0-2.647,2.413-4.143,7.067-4.143h0.193c0.084-0.448,0.127-0.747,0.127-0.939c0-0.705-0.406-1.09-1.109-1.09
		c-0.855,0-1.41,0.385-1.965,1.304l-3.267-0.769c0.982-2.157,2.775-3.203,5.402-3.203c3.012,0,4.741,1.302,4.741,3.118
		c0,0.384-0.043,0.896-0.149,1.558l-0.641,4.016c-0.107,0.597-0.15,1.11-0.15,1.516c0,0.47,0.021,0.983,0.064,1.516H57.616z
		 M57.403,99.15c-1.538,0-2.498,0.813-2.498,1.943c0,0.555,0.49,1.025,1.195,1.025c0.491,0,1.047-0.235,1.688-0.685l0.299-2.24
		C57.809,99.172,57.573,99.15,57.403,99.15"/>
	<path fill="#D1010E" d="M74.336,92.831c-0.299-0.065-0.576-0.129-0.832-0.129c-0.405,0-0.853,0.171-1.346,0.449
		c1.454,0.574,2.115,1.493,2.115,2.882c0,2.285-1.986,3.778-5.36,3.778c-0.469,0-0.876-0.021-1.26-0.021
		c-0.619,0-0.939,0.214-0.939,0.598c0,0.386,0.427,0.599,1.216,0.599c0.877,0,1.475-0.042,1.773-0.042
		c3.289,0,4.741,0.748,4.741,3.201c0,2.927-2.286,4.017-7.153,4.017c-2.969,0-4.527-0.898-4.527-2.243
		c0-0.811,0.704-1.452,2.113-1.943c-1.046-0.532-1.537-1.109-1.537-1.943c0-1.025,0.79-1.858,2.412-2.647
		c-1.195-0.769-1.75-1.644-1.75-2.818c0-2.35,2.093-3.865,5.915-3.865c0.279,0,0.576,0,0.897,0.021
		c0.577-1.623,1.665-2.455,3.223-2.455h0.299V92.831z M65.838,105.109c0,0.811,0.555,1.004,1.879,1.004
		c2.456,0,3.566-0.086,3.566-1.004c0-0.79-1.067-0.876-3.181-0.876C66.608,104.233,65.838,104.297,65.838,105.109 M67.76,96.354
		c0,0.896,0.513,1.408,1.366,1.408c0.898,0,1.538-0.661,1.538-1.665c0-0.876-0.511-1.389-1.387-1.389
		C68.358,94.708,67.76,95.35,67.76,96.354"/>
	<path fill="#D1010E" d="M86.339,101.479c-1.43,2.113-3.074,3.117-5.232,3.117c-3.331,0-5.487-2.113-5.487-5.296
		c0-1.644,0.469-3.159,1.323-4.355c1.111-1.603,2.712-2.435,4.698-2.435c3.118,0,4.933,1.965,4.933,5.468
		c0,0.426-0.043,0.854-0.085,1.322h-6.92c-0.021,0.172-0.042,0.343-0.042,0.513c0,1.281,0.79,2.093,1.923,2.093
		c0.896,0,1.707-0.534,2.434-1.602L86.339,101.479z M83.328,96.974c0-1.41-0.491-2.072-1.538-2.072c-1.046,0-1.793,0.791-2.07,2.328
		h3.608V96.974z"/>
	<path fill="#D1010E" d="M95.18,87.962h3.908l-1.004,6.277c1.239-1.152,2.477-1.729,3.673-1.729c1.687,0,2.797,1.088,2.797,2.86
		c0,0.428-0.085,1.025-0.214,1.794l-1.131,7.067h-3.908l1.09-6.833c0.085-0.491,0.127-0.833,0.127-0.982
		c0-0.704-0.299-1.023-0.897-1.023c-0.576,0-1.281,0.511-1.964,1.515l-1.153,7.324h-3.908L95.18,87.962z"/>
	<path fill="#D1010E" d="M111.944,92.511c3.225,0,5.189,1.964,5.189,5.06c0,4.228-2.477,7.004-6.214,7.004
		c-3.246,0-5.168-1.901-5.168-4.996C105.751,95.265,108.251,92.511,111.944,92.511 M111.069,101.926c1.238,0,2.113-1.836,2.113-4.89
		c0-1.217-0.469-1.857-1.345-1.857c-1.259,0-2.135,1.815-2.135,4.868C109.702,101.285,110.194,101.926,111.069,101.926"/>
	<polygon fill="#D1010E" points="117.86,104.233 120.422,87.962 124.33,87.962 121.768,104.233 	"/>
	<path fill="#D1010E" d="M123.968,104.232l1.814-11.466h3.887l-1.793,11.466H123.968z M125.996,91.292l0.534-3.33h3.907l-0.533,3.33
		H125.996z"/>
	<path fill="#D1010E" d="M141.029,104.232h-3.908l0.127-1.023c-1.131,0.917-2.242,1.387-3.416,1.387
		c-2.177,0-3.502-1.559-3.502-4.335c0-4.59,2.349-7.708,5.381-7.708c1.238,0,2.178,0.426,3.011,1.388l0.962-5.979h3.907
		L141.029,104.232z M136.928,95.071c-1.516,0-2.563,1.924-2.563,5.232c0,1.197,0.514,1.836,1.325,1.836
		c0.555,0,1.152-0.341,1.922-0.981l0.876-5.382C137.932,95.307,137.441,95.071,136.928,95.071"/>
	<path fill="#D1010E" d="M149.635,104.232l-0.022-1.004c-1.174,0.876-2.242,1.304-3.267,1.304c-1.858,0-3.16-1.323-3.16-3.183
		c0-2.647,2.413-4.143,7.068-4.143h0.191c0.086-0.448,0.129-0.747,0.129-0.939c0-0.705-0.406-1.09-1.11-1.09
		c-0.855,0-1.409,0.385-1.965,1.304l-3.266-0.769c0.982-2.157,2.775-3.203,5.402-3.203c3.011,0,4.74,1.302,4.74,3.118
		c0,0.384-0.043,0.896-0.149,1.558l-0.642,4.016c-0.105,0.597-0.148,1.11-0.148,1.516c0,0.47,0.021,0.983,0.064,1.516H149.635z
		 M149.421,99.15c-1.538,0-2.498,0.813-2.498,1.943c0,0.555,0.491,1.025,1.195,1.025c0.491,0,1.046-0.235,1.687-0.685l0.299-2.24
		C149.827,99.172,149.592,99.15,149.421,99.15"/>
	<path fill="#D1010E" d="M154.996,105.15c0.256,0.022,0.47,0.022,0.704,0.022c1.731,0,2.52-0.47,2.52-1.666
		c0-0.363-0.127-0.748-0.235-1.173l-2.691-9.568h3.93l1.089,4.036c0.171,0.662,0.299,1.345,0.406,2.092
		c0.128-0.618,0.362-1.259,0.682-1.921l1.965-4.207h3.246l-5.808,11.81c-0.683,1.388-1.153,2.433-2.606,3.097
		c-0.661,0.319-1.451,0.468-2.369,0.468c-0.256,0-0.535-0.021-0.833-0.042V105.15z"/>
	<path fill="#D1010E" d="M167.873,100.24c0.833,1.237,1.794,1.837,3.075,1.837c0.875,0,1.366-0.343,1.366-0.898
		c0-0.212-0.128-0.426-0.363-0.64c-0.405-0.363-1.28-0.405-2.349-0.789c-1.729-0.62-2.691-1.859-2.691-3.396
		c0-2.113,2.029-3.843,4.806-3.843c1.985,0,3.608,0.875,4.846,2.626l-2.241,1.495c-0.983-1.09-1.966-1.623-2.947-1.623
		c-0.598,0-0.961,0.298-0.961,0.747c0,0.854,0.961,0.876,2.284,1.324c2.264,0.768,3.354,1.771,3.354,3.479
		c0,2.285-1.987,4.016-5.19,4.016c-2.455,0-4.228-0.833-5.467-2.69L167.873,100.24z"/>
	<path fill="#D1010E" d="M182.287,105.15c0.257,0.022,0.47,0.022,0.705,0.022c1.73,0,2.52-0.47,2.52-1.666
		c0-0.363-0.128-0.748-0.236-1.173l-2.689-9.568h3.928l1.089,4.036c0.171,0.662,0.299,1.345,0.406,2.092
		c0.129-0.618,0.363-1.259,0.683-1.921l1.965-4.207h3.245l-5.807,11.81c-0.683,1.388-1.154,2.433-2.605,3.097
		c-0.663,0.319-1.453,0.468-2.371,0.468c-0.256,0-0.533-0.021-0.833-0.042V105.15z"/>
	<path fill="#D1010E" d="M199.712,92.511c3.224,0,5.188,1.964,5.188,5.06c0,4.228-2.476,7.004-6.212,7.004
		c-3.247,0-5.168-1.901-5.168-4.996C193.521,95.265,196.019,92.511,199.712,92.511 M198.836,101.926c1.238,0,2.114-1.836,2.114-4.89
		c0-1.217-0.469-1.857-1.344-1.857c-1.26,0-2.137,1.815-2.137,4.868C197.469,101.285,197.961,101.926,198.836,101.926"/>
	<path fill="#D1010E" d="M216.219,104.233h-3.908l0.235-1.366c-1.239,1.151-2.476,1.708-3.673,1.708
		c-1.687,0-2.798-1.089-2.798-2.862c0-0.383,0.086-0.982,0.214-1.793l1.112-7.154h3.906l-1.067,6.918
		c-0.085,0.515-0.128,0.855-0.128,0.983c0,0.705,0.298,1.026,0.896,1.026c0.576,0,1.281-0.492,1.965-1.495l1.154-7.433h3.907
		L216.219,104.233z"/>
	<path fill="#D1010E" d="M234.563,100.625c-0.684,2.563-2.52,3.949-5.209,3.949c-3.203,0-5.318-2.156-5.318-5.466
		c0-1.644,0.449-3.054,1.326-4.186c1.215-1.559,2.988-2.412,4.846-2.412c2.605,0,4.398,1.537,4.656,4.056l-3.354,0.3
		c-0.129-1.132-0.449-1.623-1.217-1.623c-1.262,0-2.178,1.687-2.178,4.654c0,1.388,0.596,2.115,1.707,2.115
		c0.834,0,1.688-0.662,2.221-1.922L234.563,100.625z"/>
	<path fill="#D1010E" d="M241.995,104.232l-0.021-1.004c-1.174,0.876-2.242,1.304-3.268,1.304c-1.857,0-3.16-1.323-3.16-3.183
		c0-2.647,2.414-4.143,7.068-4.143h0.193c0.086-0.448,0.127-0.747,0.127-0.939c0-0.705-0.404-1.09-1.109-1.09
		c-0.855,0-1.41,0.385-1.965,1.304l-3.268-0.769c0.982-2.157,2.775-3.203,5.402-3.203c3.012,0,4.74,1.302,4.74,3.118
		c0,0.384-0.043,0.896-0.148,1.558l-0.641,4.016c-0.107,0.597-0.15,1.11-0.15,1.516c0,0.47,0.021,0.983,0.064,1.516H241.995z
		 M241.782,99.15c-1.539,0-2.5,0.813-2.5,1.943c0,0.555,0.492,1.025,1.197,1.025c0.49,0,1.047-0.235,1.688-0.685l0.299-2.24
		C242.188,99.172,241.952,99.15,241.782,99.15"/>
	<path fill="#D1010E" d="M249.534,92.767h3.908l-0.236,1.474c1.238-1.154,2.477-1.73,3.672-1.73c1.688,0,2.799,1.089,2.799,2.861
		c0,0.427-0.086,1.025-0.215,1.794l-1.131,7.068h-3.906l1.086-6.833c0.086-0.491,0.129-0.833,0.129-0.983
		c0-0.705-0.297-1.023-0.896-1.023c-0.576,0-1.281,0.512-1.965,1.516l-1.152,7.324h-3.908L249.534,92.767z"/>
	<path fill="#D1010E" d="M271.101,100.56c0,0.79,0.363,1.134,1.154,1.134c0.277,0,0.598-0.023,1.004-0.086l-0.449,2.755
		c-0.982,0.127-1.771,0.233-2.391,0.233c-2.35,0-3.438-0.726-3.438-2.434c0-0.342,0.021-0.748,0.105-1.26l0.898-5.573h-1.604
		l0.408-2.563h1.602l1.066-3.949h3.48l-0.619,3.949h1.709l-0.406,2.563h-1.708l-0.769,4.698
		C271.124,100.219,271.101,100.389,271.101,100.56"/>
	<path fill="#D1010E" d="M276.077,92.767h3.91l-0.301,1.879c1.025-1.304,2.029-1.9,3.396-1.9c0.105,0,0.213,0.021,0.342,0.021
		l-0.77,4.101c-0.727-0.257-1.281-0.385-1.688-0.385c-0.617,0-1.152,0.17-1.666,0.576l-1.131,7.175h-3.906L276.077,92.767z"/>
	<path fill="#D1010E" d="M293.632,104.233h-3.908l0.234-1.366c-1.238,1.151-2.477,1.708-3.672,1.708
		c-1.688,0-2.797-1.089-2.797-2.862c0-0.383,0.084-0.982,0.213-1.793l1.111-7.154h3.906l-1.066,6.918
		c-0.086,0.515-0.129,0.855-0.129,0.983c0,0.705,0.299,1.026,0.896,1.026c0.576,0,1.281-0.492,1.965-1.495l1.154-7.433h3.906
		L293.632,104.233z"/>
	<path fill="#D1010E" d="M297.839,100.24c0.832,1.237,1.795,1.837,3.074,1.837c0.877,0,1.367-0.343,1.367-0.898
		c0-0.212-0.127-0.426-0.363-0.64c-0.404-0.363-1.281-0.405-2.348-0.789c-1.73-0.62-2.691-1.859-2.691-3.396
		c0-2.113,2.029-3.843,4.805-3.843c1.984,0,3.609,0.875,4.848,2.626l-2.242,1.495c-0.982-1.09-1.965-1.623-2.947-1.623
		c-0.598,0-0.961,0.298-0.961,0.747c0,0.854,0.961,0.876,2.285,1.324c2.264,0.768,3.352,1.771,3.352,3.479
		c0,2.285-1.986,4.016-5.189,4.016c-2.453,0-4.227-0.833-5.468-2.69L297.839,100.24z"/>
	<path fill="#D1010E" d="M311.976,100.56c0,0.79,0.361,1.134,1.154,1.134c0.277,0,0.598-0.023,1.002-0.086l-0.447,2.755
		c-0.984,0.127-1.772,0.233-2.393,0.233c-2.35,0-3.438-0.726-3.438-2.434c0-0.342,0.021-0.748,0.107-1.26l0.896-5.573h-1.604
		l0.408-2.563h1.602l1.066-3.949h3.48l-0.619,3.949h1.709l-0.405,2.563h-1.709l-0.769,4.698
		C311.997,100.219,311.976,100.389,311.976,100.56"/>
</g>
</svg>
