<?xml version="1.0" encoding="utf-8"?>
<!-- Generator: Adobe Illustrator 16.0.3, SVG Export Plug-In . SVG Version: 6.00 Build 0)  -->
<!DOCTYPE svg PUBLIC "-//W3C//DTD SVG 1.1//EN" "http://www.w3.org/Graphics/SVG/1.1/DTD/svg11.dtd">
<svg version="1.1" id="Layer_1" xmlns="http://www.w3.org/2000/svg" xmlns:xlink="http://www.w3.org/1999/xlink" x="0px" y="0px"
	 width="100px" height="100px" viewBox="0 0 100 100" enable-background="new 0 0 100 100" xml:space="preserve">
<g>
<g>
	<path fill="#FFFFFF" d="M50.529,15.355c-9.026,0-17.242,3.46-23.401,9.123l0.092,0.092c0.146,0.146,0.146,0.386,0,0.53
		l-0.216,0.214l1.474,0.566c2.358-2.197,3.77-2.685,4.326-2.129c0.557,0.558,0.07,1.968-2.127,4.327l0.563,1.441l0.199-0.2
		c0.146-0.145,0.385-0.146,0.532,0l0.498,0.499c0.145,0.145,0.145,0.385-0.001,0.529L31.815,31l1.085,2.781
		c0.074,0.194,0.016,0.469-0.128,0.616l-0.701,0.702c-0.146,0.146-0.371,0.134-0.5-0.026l-3.612-4.433
		c-1.031,0.859-2.08,1.633-2.979,2.222l0.251,1.734c0.03,0.203-0.065,0.491-0.213,0.637L24.7,35.552
		c-0.145,0.144-0.349,0.117-0.455-0.061l-0.962-1.658c-0.357,0.155-0.606,0.212-0.689,0.129s-0.027-0.332,0.129-0.689l-1.66-0.961
		c-0.103-0.062-0.148-0.156-0.146-0.252c-3.16,5.22-4.979,11.341-4.979,17.887c0,19.104,15.486,34.591,34.59,34.591
		s34.59-15.487,34.59-34.591S69.633,15.355,50.529,15.355z"/>
	<path fill="#FFFFFF" d="M21.96,31.326l1.734,0.251c0.589-0.897,1.361-1.943,2.218-2.972l-1.56-1.256
		c-1.19,1.377-2.275,2.846-3.238,4.4l0.211-0.211C21.47,31.393,21.757,31.296,21.96,31.326z"/>
	<path opacity="0.27" fill="#ADADAD" d="M21.006,31.857c-0.062,0.061-0.085,0.132-0.088,0.202c0.063-0.104,0.131-0.205,0.195-0.309
		L21.006,31.857z"/>
	<path fill="#FFFFFF" d="M21.064,32.311l1.66,0.961c-0.157,0.357-0.212,0.606-0.129,0.689s0.332,0.026,0.689-0.129l0.962,1.658
		c0.105,0.178,0.31,0.205,0.455,0.061l0.318-0.319c0.147-0.146,0.243-0.434,0.213-0.637l-0.251-1.734
		c0.898-0.589,1.947-1.363,2.979-2.222l3.612,4.433c0.129,0.16,0.354,0.171,0.5,0.026l0.701-0.702
		c0.145-0.146,0.202-0.422,0.128-0.616L31.815,31l0.652-0.652c0.146-0.145,0.146-0.384,0.001-0.529l-0.498-0.499
		c-0.146-0.146-0.385-0.145-0.532,0l-0.199,0.2l-0.563-1.441c2.197-2.359,2.685-3.77,2.127-4.327
		c-0.557-0.556-1.968-0.068-4.326,2.129l-1.474-0.566l0.216-0.214c0.146-0.145,0.146-0.384,0-0.53l-0.092-0.092
		c-0.981,0.902-1.905,1.863-2.776,2.872l1.56,1.256c-0.857,1.029-1.628,2.075-2.218,2.972l-1.734-0.251
		c-0.203-0.03-0.49,0.066-0.635,0.212l-0.211,0.211c-0.064,0.104-0.132,0.205-0.195,0.309C20.916,32.155,20.961,32.25,21.064,32.311
		z"/>
	<path opacity="0.27" fill="#ADADAD" d="M21.064,32.311l1.66,0.961c-0.157,0.357-0.212,0.606-0.129,0.689s0.332,0.026,0.689-0.129
		l0.962,1.658c0.105,0.178,0.31,0.205,0.455,0.061l0.318-0.319c0.147-0.146,0.243-0.434,0.213-0.637l-0.251-1.734
		c0.898-0.589,1.947-1.363,2.979-2.222l3.612,4.433c0.129,0.16,0.354,0.171,0.5,0.026l0.701-0.702
		c0.145-0.146,0.202-0.422,0.128-0.616L31.815,31l0.652-0.652c0.146-0.145,0.146-0.384,0.001-0.529l-0.498-0.499
		c-0.146-0.146-0.385-0.145-0.532,0l-0.199,0.2l-0.563-1.441c2.197-2.359,2.685-3.77,2.127-4.327
		c-0.557-0.556-1.968-0.068-4.326,2.129l-1.474-0.566l0.216-0.214c0.146-0.145,0.146-0.384,0-0.53l-0.092-0.092
		c-0.981,0.902-1.905,1.863-2.776,2.872l1.56,1.256c-0.857,1.029-1.628,2.075-2.218,2.972l-1.734-0.251
		c-0.203-0.03-0.49,0.066-0.635,0.212l-0.211,0.211c-0.064,0.104-0.132,0.205-0.195,0.309C20.916,32.155,20.961,32.25,21.064,32.311
		z"/>
</g>
<defs>
	<filter id="Adobe_OpacityMaskFilter" filterUnits="userSpaceOnUse" x="4.257" y="16.328" width="20.376" height="67.235">
		<feColorMatrix  type="matrix" values="1 0 0 0 0  0 1 0 0 0  0 0 1 0 0  0 0 0 1 0"/>
	</filter>
</defs>
<mask maskUnits="userSpaceOnUse" x="4.257" y="16.328" width="20.376" height="67.235" id="SVGID_1_">
	<g filter="url(#Adobe_OpacityMaskFilter)">
		<g>
			
				<linearGradient id="SVGID_2_" gradientUnits="userSpaceOnUse" x1="-12.2285" y1="43.1118" x2="55.0068" y2="43.1118" gradientTransform="matrix(0 -1 1 0 -28.6665 71.335)">
				<stop  offset="0.1044" style="stop-color:#000000"/>
				<stop  offset="1" style="stop-color:#FFFFFF"/>
			</linearGradient>
			<path fill="url(#SVGID_2_)" d="M4.257,49.944C4.254,37.792,8.909,25.597,18.186,16.328l0,0l6.448,6.45
				c-7.512,7.511-11.247,17.317-11.252,27.167l0,0c0.005,9.846,3.741,19.652,11.252,27.165l0,0v0.003l-6.451,6.451
				C8.909,74.289,4.254,62.097,4.257,49.944L4.257,49.944z"/>
		</g>
	</g>
</mask>
<g mask="url(#SVGID_1_)">
	<path fill="#FFFFFF" d="M4.257,49.944C4.254,37.792,8.909,25.597,18.186,16.328l0,0l6.448,6.45
		c-7.512,7.511-11.247,17.317-11.252,27.167l0,0c0.005,9.846,3.741,19.652,11.252,27.165l0,0v0.003l-6.451,6.451
		C8.909,74.289,4.254,62.097,4.257,49.944L4.257,49.944z"/>
</g>
<path fill="#EC1C24" d="M26.505,22.069l0.706-0.706c0.158-0.157,0.158-0.417,0.001-0.573l-0.539-0.539
	c-0.158-0.158-0.417-0.157-0.575,0l-0.216,0.216l-0.609-1.56c2.375-2.551,2.903-4.075,2.3-4.678
	c-0.602-0.601-2.127-0.074-4.677,2.302l-1.594-0.612l0.233-0.232c0.158-0.157,0.158-0.415,0-0.573l-0.538-0.539
	c-0.159-0.158-0.417-0.158-0.575,0l-0.729,0.728l-2.999-1.148c-0.207-0.081-0.506-0.018-0.664,0.141l-0.756,0.76
	c-0.155,0.157-0.144,0.402,0.031,0.543l4.816,3.878c-0.928,1.113-1.761,2.244-2.399,3.213l-1.875-0.272
	c-0.22-0.032-0.531,0.071-0.688,0.229l-0.344,0.344c-0.159,0.158-0.129,0.377,0.063,0.491l1.795,1.041
	c-0.17,0.387-0.229,0.655-0.139,0.745c0.089,0.089,0.359,0.029,0.744-0.14l1.041,1.793c0.113,0.193,0.335,0.222,0.491,0.065
	l0.344-0.344c0.159-0.157,0.262-0.468,0.229-0.689l-0.272-1.874c0.973-0.637,2.106-1.475,3.221-2.403l3.906,4.794
	c0.141,0.172,0.384,0.186,0.542,0.028l0.758-0.76c0.156-0.158,0.219-0.457,0.139-0.665L26.505,22.069z"/>
	<animateTransform attributeName="transform" type="rotate" from="0 50 50" to="360 50 50" dur="3s" repeatCount="indefinite" />
</g>
</svg>
